<svg width="24" height="26" viewBox="0 0 24 26" fill="none" xmlns="http://www.w3.org/2000/svg">
<path d="M1.2 6.5V1.3L6 3.9L1.2 6.5ZM19.2 6.5V1.3L24 3.9L19.2 6.5ZM10.8 5.2V0L15.6 2.6L10.8 5.2ZM10.8 26C9.28 25.9567 7.865 25.8212 6.555 25.5938C5.245 25.3662 4.105 25.0792 3.135 24.7325C2.165 24.3858 1.4 23.985 0.84 23.53C0.28 23.075 0 22.5983 0 22.1V10.4C0 9.85833 0.315 9.35458 0.945 8.88875C1.575 8.42292 2.43 8.01125 3.51 7.65375C4.59 7.29625 5.86 7.01458 7.32 6.80875C8.78 6.60292 10.34 6.5 12 6.5C13.66 6.5 15.22 6.60292 16.68 6.80875C18.14 7.01458 19.41 7.29625 20.49 7.65375C21.57 8.01125 22.425 8.42292 23.055 8.88875C23.685 9.35458 24 9.85833 24 10.4V22.1C24 22.5983 23.72 23.075 23.16 23.53C22.6 23.985 21.835 24.3858 20.865 24.7325C19.895 25.0792 18.755 25.3662 17.445 25.5938C16.135 25.8212 14.72 25.9567 13.2 26V20.8H10.8V26ZM12 11.7C13.94 11.7 15.615 11.5754 17.025 11.3262C18.435 11.0771 19.56 10.79 20.4 10.465C20.4 10.3567 19.64 10.1021 18.12 9.70125C16.6 9.30042 14.56 9.1 12 9.1C9.44 9.1 7.4 9.30042 5.88 9.70125C4.36 10.1021 3.6 10.3567 3.6 10.465C4.44 10.79 5.565 11.0771 6.975 11.3262C8.385 11.5754 10.06 11.7 12 11.7ZM8.4 23.205V18.2H15.6V23.205C17.2 23.0317 18.51 22.7771 19.53 22.4412C20.55 22.1054 21.24 21.8075 21.6 21.5475V12.74C20.5 13.2167 19.12 13.5958 17.46 13.8775C15.8 14.1592 13.98 14.3 12 14.3C10.02 14.3 8.2 14.1592 6.54 13.8775C4.88 13.5958 3.5 13.2167 2.4 12.74V21.5475C2.76 21.8075 3.45 22.1054 4.47 22.4412C5.49 22.7771 6.8 23.0317 8.4 23.205Z" fill="#00FFC3"/>
</svg>
