<svg width="26" height="25" viewBox="0 0 26 25" fill="none" xmlns="http://www.w3.org/2000/svg">
<path d="M2.58333 24.5417C1.87292 24.5417 1.26476 24.2887 0.758854 23.7828C0.252951 23.2769 0 22.6687 0 21.9583V7.75C0 7.03958 0.252951 6.43142 0.758854 5.92552C1.26476 5.41962 1.87292 5.16667 2.58333 5.16667H7.75V2.58333C7.75 1.87292 8.00295 1.26476 8.50885 0.758854C9.01476 0.252951 9.62292 0 10.3333 0H15.5C16.2104 0 16.8186 0.252951 17.3245 0.758854C17.8304 1.26476 18.0833 1.87292 18.0833 2.58333V5.16667H23.25C23.9604 5.16667 24.5686 5.41962 25.0745 5.92552C25.5804 6.43142 25.8333 7.03958 25.8333 7.75V21.9583C25.8333 22.6687 25.5804 23.2769 25.0745 23.7828C24.5686 24.2887 23.9604 24.5417 23.25 24.5417H2.58333ZM10.3333 5.16667H15.5V2.58333H10.3333V5.16667ZM23.25 16.7917H16.7917V19.375H9.04167V16.7917H2.58333V21.9583H23.25V16.7917ZM11.625 16.7917H14.2083V14.2083H11.625V16.7917ZM2.58333 14.2083H9.04167V11.625H16.7917V14.2083H23.25V7.75H2.58333V14.2083Z" fill="#00FFC3"/>
</svg>
