<svg width="22" height="25" viewBox="0 0 22 25" fill="none" xmlns="http://www.w3.org/2000/svg">
<path d="M3.88889 24.5C3.26667 24.5 2.66875 24.3833 2.09514 24.15C1.52153 23.9167 1.01111 23.5667 0.563889 23.1L0.359722 22.8958C0.184722 22.7403 0.0729167 22.5458 0.0243056 22.3125C-0.0243056 22.0792 0 21.8556 0.0972222 21.6417L5.75556 7.20417C5.91111 6.81528 6.17847 6.51875 6.55764 6.31458C6.93681 6.11042 7.33056 6.05694 7.73889 6.15417L9.43056 6.475C9.76111 6.55278 10.0771 6.52847 10.3785 6.40208C10.6799 6.27569 10.9375 6.10556 11.1514 5.89167C11.4236 5.6 11.6035 5.29375 11.691 4.97292C11.7785 4.65208 11.7736 4.32639 11.6764 3.99583L11.5306 3.55833C11.4333 3.24722 11.4188 2.93125 11.4868 2.61042C11.5549 2.28958 11.7056 2.0125 11.9389 1.77917L13.1931 0.525C13.5236 0.175 13.9368 0 14.4326 0C14.9285 0 15.3417 0.165278 15.6722 0.495833L20.9514 5.8625C21.3792 6.30972 21.5979 6.83958 21.6076 7.45208C21.6174 8.06458 21.4181 8.59444 21.0097 9.04167L21.5639 9.59583C21.6806 9.73194 21.7826 9.87292 21.8701 10.0188C21.9576 10.1646 22.0014 10.3153 22.0014 10.4708C22.0014 10.6069 21.9722 10.7431 21.9139 10.8792C21.8556 11.0153 21.7486 11.1611 21.5931 11.3167C21.3597 11.5306 21.0826 11.6424 20.7618 11.6521C20.441 11.6618 20.1639 11.55 19.9306 11.3167L19.4056 10.7625L18.5889 11.6083L19.1139 12.1333C19.3278 12.3472 19.4347 12.6194 19.4347 12.95C19.4347 13.2806 19.3278 13.5528 19.1139 13.7667C18.8806 13.9806 18.6035 14.0924 18.2826 14.1021C17.9618 14.1118 17.6847 14 17.4514 13.7667L16.9264 13.2708L13.6597 16.5958L14.1556 17.0625C14.3889 17.2958 14.5056 17.5729 14.5056 17.8938C14.5056 18.2146 14.3889 18.4917 14.1556 18.725C13.9222 18.9389 13.6451 19.0507 13.3243 19.0604C13.0035 19.0701 12.7264 18.9583 12.4931 18.725L12.0264 18.2292L11.2097 19.075L11.6764 19.5417C11.8903 19.7556 11.9972 20.0278 11.9972 20.3583C11.9972 20.6889 11.8903 20.9611 11.6764 21.175C11.4431 21.3889 11.166 21.5007 10.8451 21.5104C10.5243 21.5201 10.2472 21.4083 10.0139 21.175L9.54722 20.7375L8.73056 21.5542L9.19722 21.9917C9.41111 22.225 9.51806 22.5021 9.51806 22.8229C9.51806 23.1438 9.41111 23.4208 9.19722 23.6542C8.96389 23.8681 8.68681 23.9799 8.36597 23.9896C8.04514 23.9993 7.76806 23.8875 7.53472 23.6542L7.06806 23.1875C6.62083 23.6347 6.12986 23.9653 5.59514 24.1792C5.06042 24.3931 4.49167 24.5 3.88889 24.5ZM2.22639 16.2458C2.32361 16.0319 2.40139 15.8424 2.45972 15.6771L2.54722 15.4292L1.90556 17.0625L2.00764 16.8146C2.07569 16.6493 2.14861 16.4597 2.22639 16.2458ZM3.36389 13.3292C3.46111 13.1153 3.53889 12.9257 3.59722 12.7604L3.68472 12.5125L3.04306 14.1458L3.14514 13.8979C3.21319 13.7326 3.28611 13.5431 3.36389 13.3292ZM4.50139 10.4125C4.59861 10.1986 4.67639 10.0139 4.73472 9.85833L4.82222 9.625L4.18056 11.2292L4.28264 10.9813C4.35069 10.816 4.42361 10.6264 4.50139 10.4125ZM3.88889 22.1375C4.21944 22.1375 4.52569 22.0792 4.80764 21.9625C5.08958 21.8458 5.3375 21.6708 5.55139 21.4375L19.2889 7.49583L14.4472 2.56667L13.8639 3.15C14.0972 3.92778 14.141 4.68611 13.9951 5.425C13.8493 6.16389 13.4556 6.85417 12.8139 7.49583C12.3083 8.00139 11.725 8.37569 11.0639 8.61875C10.4028 8.86181 9.7125 8.90556 8.99306 8.75L7.79722 8.51667L7.06806 10.2958L7.73889 10.5292C7.95278 10.6264 8.10833 10.7819 8.20556 10.9958C8.30278 11.2097 8.3125 11.4236 8.23472 11.6375C8.15694 11.8708 8.01111 12.0458 7.79722 12.1625C7.58333 12.2792 7.35972 12.2889 7.12639 12.1917L6.42639 11.9292L5.93056 13.2125L6.48472 13.4167C6.69861 13.5139 6.85903 13.6694 6.96597 13.8833C7.07292 14.0972 7.0875 14.3111 7.00972 14.525C6.93194 14.7583 6.78125 14.9285 6.55764 15.0354C6.33403 15.1424 6.10556 15.1472 5.87222 15.05L5.28889 14.8458L4.79306 16.1292L5.25972 16.3042C5.47361 16.4014 5.62917 16.5521 5.72639 16.7563C5.82361 16.9604 5.83333 17.1694 5.75556 17.3833C5.67778 17.6167 5.52708 17.7917 5.30347 17.9083C5.07986 18.025 4.85139 18.0347 4.61806 17.9375L4.15139 17.7625L2.57639 21.7292C2.77083 21.8653 2.97986 21.9674 3.20347 22.0354C3.42708 22.1035 3.65556 22.1375 3.88889 22.1375Z" fill="#00FFC3"/>
</svg>
