<svg width="20" height="6" viewBox="0 0 20 6" fill="none" xmlns="http://www.w3.org/2000/svg">
<path d="M0.875 5.125C0.291667 4.54167 0 3.83333 0 3C0 2.16667 0.291667 1.45833 0.875 0.875C1.45833 0.291667 2.16667 0 3 0C3.83333 0 4.54167 0.291667 5.125 0.875C5.70833 1.45833 6 2.16667 6 3C6 3.83333 5.70833 4.54167 5.125 5.125C4.54167 5.70833 3.83333 6 3 6C2.16667 6 1.45833 5.70833 0.875 5.125ZM3.7125 3.7125C3.90417 3.52083 4 3.28333 4 3C4 2.71667 3.90417 2.47917 3.7125 2.2875C3.52083 2.09583 3.28333 2 3 2C2.71667 2 2.47917 2.09583 2.2875 2.2875C2.09583 2.47917 2 2.71667 2 3C2 3.28333 2.09583 3.52083 2.2875 3.7125C2.47917 3.90417 2.71667 4 3 4C3.28333 4 3.52083 3.90417 3.7125 3.7125ZM7.875 5.125C7.29167 4.54167 7 3.83333 7 3C7 2.16667 7.29167 1.45833 7.875 0.875C8.45833 0.291667 9.16667 0 10 0C10.8333 0 11.5417 0.291667 12.125 0.875C12.7083 1.45833 13 2.16667 13 3C13 3.83333 12.7083 4.54167 12.125 5.125C11.5417 5.70833 10.8333 6 10 6C9.16667 6 8.45833 5.70833 7.875 5.125ZM10.7125 3.7125C10.9042 3.52083 11 3.28333 11 3C11 2.71667 10.9042 2.47917 10.7125 2.2875C10.5208 2.09583 10.2833 2 10 2C9.71667 2 9.47917 2.09583 9.2875 2.2875C9.09583 2.47917 9 2.71667 9 3C9 3.28333 9.09583 3.52083 9.2875 3.7125C9.47917 3.90417 9.71667 4 10 4C10.2833 4 10.5208 3.90417 10.7125 3.7125ZM14.875 5.125C14.2917 4.54167 14 3.83333 14 3C14 2.16667 14.2917 1.45833 14.875 0.875C15.4583 0.291667 16.1667 0 17 0C17.8333 0 18.5417 0.291667 19.125 0.875C19.7083 1.45833 20 2.16667 20 3C20 3.83333 19.7083 4.54167 19.125 5.125C18.5417 5.70833 17.8333 6 17 6C16.1667 6 15.4583 5.70833 14.875 5.125Z" fill="#00FFC3"/>
</svg>
