<svg width="22" height="22" viewBox="0 0 22 22" fill="none" xmlns="http://www.w3.org/2000/svg">
<path d="M20.1557 19.8951L13.1966 12.9358C13.1836 12.9445 13.1695 12.9531 13.1544 12.9618C13.1394 12.9705 13.1232 12.9769 13.1059 12.981C12.9066 12.647 12.685 12.3291 12.4413 12.0272C12.1975 11.7251 11.9496 11.4442 11.6976 11.1843C12.3663 10.7638 12.9009 10.2033 13.3012 9.50273C13.7013 8.80217 13.9013 8.03147 13.9013 7.19063C13.9013 5.87528 13.4425 4.75881 12.5247 3.84123C11.6071 2.92347 10.4906 2.46458 9.17529 2.46458C7.85995 2.46458 6.74348 2.92347 5.8259 3.84123C4.90813 4.75881 4.44925 5.87528 4.44925 7.19063C4.44925 7.29896 4.45268 7.40169 4.45954 7.49883C4.4664 7.59597 4.47886 7.69654 4.49692 7.80054C4.12443 7.83665 3.71818 7.91429 3.27817 8.03346C2.83815 8.15262 2.44743 8.30167 2.106 8.4806C2.06556 8.26899 2.03522 8.05531 2.015 7.83954C1.99478 7.6236 1.98467 7.40729 1.98467 7.19063C1.98467 5.18375 2.68134 3.48355 4.07469 2.09002C5.46822 0.696673 7.16842 0 9.17529 0C11.1822 0 12.8824 0.696673 14.2759 2.09002C15.6692 3.48355 16.3659 5.18375 16.3659 7.19063C16.3659 7.96701 16.2473 8.70278 16.01 9.39792C15.7728 10.0931 15.4461 10.723 15.0299 11.2878L21.8798 18.171L20.1557 19.8951ZM4.21606 21.0367L3.88456 19.3792C3.6809 19.2976 3.48969 19.2082 3.31094 19.1111C3.13219 19.0139 2.94992 18.8997 2.76413 18.7682L1.16106 19.2687L0 17.2846L1.27156 16.1817C1.23545 15.96 1.2174 15.7382 1.2174 15.5163C1.2174 15.2946 1.23545 15.0729 1.27156 14.8511L0 13.7483L1.16106 11.7707L2.76413 12.2647C2.94992 12.1332 3.13219 12.0199 3.31094 11.9248C3.48969 11.8298 3.6809 11.7415 3.88456 11.6599L4.21606 10.0027H6.54469L6.88269 11.6599C7.08635 11.7415 7.27756 11.8298 7.45631 11.9248C7.63506 12.0199 7.81733 12.1332 8.00313 12.2647L9.59969 11.7707L10.7673 13.7483L9.48919 14.8511C9.5253 15.0729 9.54335 15.2946 9.54335 15.5163C9.54335 15.7382 9.5253 15.96 9.48919 16.1817L10.7673 17.2846L9.59969 19.2687L8.00313 18.7682C7.81733 18.8997 7.63506 19.0139 7.45631 19.1111C7.27756 19.2082 7.08635 19.2976 6.88269 19.3792L6.54469 21.0367H4.21606ZM6.87808 17.0143C7.29174 16.5987 7.49856 16.0993 7.49856 15.5163C7.49856 14.9335 7.29174 14.4353 6.87808 14.0219C6.46461 13.6084 5.96646 13.4016 5.38363 13.4016C4.80079 13.4016 4.30156 13.6084 3.88592 14.0219C3.4701 14.4353 3.26219 14.9335 3.26219 15.5163C3.26219 16.0993 3.4701 16.5987 3.88592 17.0143C4.30156 17.4299 4.80079 17.6377 5.38363 17.6377C5.96646 17.6377 6.46461 17.4299 6.87808 17.0143Z" fill="#00FFC3"/>
</svg>
