<svg width="16" height="16" viewBox="0 0 16 16" fill="none" xmlns="http://www.w3.org/2000/svg">
<path d="M6.80833 11.5583L12.3896 5.97708L11.2812 4.86875L6.80833 9.34167L4.55208 7.08542L3.44375 8.19375L6.80833 11.5583ZM7.91667 15.8333C6.82153 15.8333 5.79236 15.6255 4.82917 15.2099C3.86597 14.7943 3.02812 14.2302 2.31562 13.5177C1.60312 12.8052 1.03906 11.9674 0.623437 11.0042C0.207812 10.041 0 9.0118 0 7.91667C0 6.82153 0.207812 5.79236 0.623437 4.82917C1.03906 3.86597 1.60312 3.02812 2.31562 2.31562C3.02812 1.60312 3.86597 1.03906 4.82917 0.623437C5.79236 0.207812 6.82153 0 7.91667 0C9.0118 0 10.041 0.207812 11.0042 0.623437C11.9674 1.03906 12.8052 1.60312 13.5177 2.31562C14.2302 3.02812 14.7943 3.86597 15.2099 4.82917C15.6255 5.79236 15.8333 6.82153 15.8333 7.91667C15.8333 9.0118 15.6255 10.041 15.2099 11.0042C14.7943 11.9674 14.2302 12.8052 13.5177 13.5177C12.8052 14.2302 11.9674 14.7943 11.0042 15.2099C10.041 15.6255 9.0118 15.8333 7.91667 15.8333ZM7.91667 14.25C9.68472 14.25 11.1823 13.6365 12.4094 12.4094C13.6365 11.1823 14.25 9.68472 14.25 7.91667C14.25 6.14861 13.6365 4.65104 12.4094 3.42396C11.1823 2.19687 9.68472 1.58333 7.91667 1.58333C6.14861 1.58333 4.65104 2.19687 3.42396 3.42396C2.19687 4.65104 1.58333 6.14861 1.58333 7.91667C1.58333 9.68472 2.19687 11.1823 3.42396 12.4094C4.65104 13.6365 6.14861 14.25 7.91667 14.25Z" fill="#00FFC4"/>
</svg>
