<svg width="29" height="29" viewBox="0 0 29 29" fill="none" xmlns="http://www.w3.org/2000/svg">
<path d="M14.1667 28.3333C12.2069 28.3333 10.3653 27.9615 8.64167 27.2177C6.91806 26.474 5.41875 25.4646 4.14375 24.1896C2.86875 22.9146 1.85937 21.4153 1.11562 19.6917C0.371875 17.9681 0 16.1264 0 14.1667C0 12.2069 0.371875 10.3653 1.11562 8.64167C1.85937 6.91806 2.86875 5.41875 4.14375 4.14375C5.41875 2.86875 6.91806 1.85937 8.64167 1.11562C10.3653 0.371875 12.2069 0 14.1667 0C16.1264 0 17.9681 0.371875 19.6917 1.11562C21.4153 1.85937 22.9146 2.86875 24.1896 4.14375C25.4646 5.41875 26.474 6.91806 27.2177 8.64167C27.9615 10.3653 28.3333 12.2069 28.3333 14.1667C28.3333 16.1264 27.9615 17.9681 27.2177 19.6917C26.474 21.4153 25.4646 22.9146 24.1896 24.1896C22.9146 25.4646 21.4153 26.474 19.6917 27.2177C17.9681 27.9615 16.1264 28.3333 14.1667 28.3333ZM21.25 10.625L23.1625 9.9875L23.7292 8.075C22.9736 6.94167 22.0646 5.96771 21.0021 5.15312C19.9396 4.33854 18.7708 3.73056 17.4958 3.32917L15.5833 4.675V6.65833L21.25 10.625ZM7.08333 10.625L12.75 6.65833V4.675L10.8375 3.32917C9.5625 3.73056 8.39375 4.33854 7.33125 5.15312C6.26875 5.96771 5.35972 6.94167 4.60417 8.075L5.17083 9.9875L7.08333 10.625ZM5.59583 21.5333L7.225 21.3917L8.2875 19.4792L6.23333 13.3167L4.25 12.6083L2.83333 13.6708C2.83333 15.2056 3.04583 16.6045 3.47083 17.8677C3.89583 19.1309 4.60417 20.3528 5.59583 21.5333ZM15.9729 25.3583C16.5632 25.2639 17.1417 25.1222 17.7083 24.9333L18.7 22.8083L17.7792 21.25H10.5542L9.63333 22.8083L10.625 24.9333C11.1917 25.1222 11.7701 25.2639 12.3604 25.3583C12.9507 25.4528 13.5528 25.5 14.1667 25.5C14.7806 25.5 15.3826 25.4528 15.9729 25.3583ZM10.9792 18.4167H17.3542L19.3375 12.75L14.1667 9.1375L9.06667 12.75L10.9792 18.4167ZM22.7375 21.5333C23.7292 20.3528 24.4375 19.1309 24.8625 17.8677C25.2875 16.6045 25.5 15.2056 25.5 13.6708L24.0833 12.6792L22.1 13.3167L20.0458 19.4792L21.1083 21.3917L22.7375 21.5333Z" fill="#00FFC3"/>
</svg>
