<svg width="13" height="16" viewBox="0 0 13 16" fill="none" xmlns="http://www.w3.org/2000/svg">
<path d="M11.05 1.77952C9.74207 0.587947 8.22805 0 6.50793 0C4.7878 0 3.27378 0.595787 1.96585 1.77952C0.657927 2.97109 0 4.56247 0 6.56933C0 7.94904 0.539024 9.40715 1.61707 10.9515C2.69512 12.4958 4.32012 14.1734 6.5 16C8.67988 14.1813 10.3049 12.4958 11.3829 10.9515C12.461 9.40715 13 7.94904 13 6.56933C13 4.56247 12.3421 2.97109 11.0341 1.77952H11.05ZM6.50793 9.50906C4.7878 9.50906 3.39268 8.12935 3.39268 6.42822C3.39268 4.72709 4.7878 3.34738 6.50793 3.34738C8.22805 3.34738 9.62317 4.72709 9.62317 6.42822C9.62317 8.12935 8.22805 9.50906 6.50793 9.50906Z" fill="#00FFC3"/>
</svg>
