<svg width="21" height="22" viewBox="0 0 21 22" fill="none" xmlns="http://www.w3.org/2000/svg">
<path d="M3.31374 22V17.27C2.26439 16.3167 1.44976 15.2029 0.869856 13.9288C0.289952 12.6546 0 11.3117 0 9.9C0 7.15 0.966507 4.8125 2.89952 2.8875C4.83253 0.9625 7.17976 0 9.94121 0C12.2424 0 14.2813 0.67375 16.0578 2.02125C17.8344 3.36875 18.9896 5.12417 19.5234 7.2875L20.9594 12.925C21.0514 13.2733 20.987 13.5896 20.7661 13.8738C20.5452 14.1579 20.2506 14.3 19.8824 14.3H17.6733V17.6C17.6733 18.205 17.457 18.7229 17.0243 19.1538C16.5917 19.5846 16.0716 19.8 15.4641 19.8H13.255V22H11.0458V17.6H15.4641V12.1H18.4465L17.3971 7.8375C16.9737 6.16917 16.0716 4.8125 14.6909 3.7675C13.3102 2.7225 11.7269 2.2 9.94121 2.2C7.80569 2.2 5.98314 2.9425 4.47355 4.4275C2.96395 5.9125 2.20916 7.71833 2.20916 9.845C2.20916 10.945 2.43468 11.99 2.88571 12.98C3.33675 13.97 3.97649 14.85 4.80492 15.62L5.5229 16.28V22H3.31374ZM8.83663 14.3H11.0458L11.2115 12.925C11.3588 12.87 11.4922 12.8058 11.6119 12.7325C11.7316 12.6592 11.8374 12.5767 11.9295 12.485L13.1997 13.035L14.3043 11.165L13.1997 10.34C13.2365 10.1933 13.255 10.0467 13.255 9.9C13.255 9.75333 13.2365 9.60667 13.1997 9.46L14.3043 8.635L13.1997 6.765L11.9295 7.315C11.8374 7.22333 11.7316 7.14083 11.6119 7.0675C11.4922 6.99417 11.3588 6.93 11.2115 6.875L11.0458 5.5H8.83663L8.67095 6.875C8.52367 6.93 8.3902 6.99417 8.27054 7.0675C8.15087 7.14083 8.04502 7.22333 7.95297 7.315L6.6827 6.765L5.57812 8.635L6.6827 9.46C6.64588 9.60667 6.62748 9.75333 6.62748 9.9C6.62748 10.0467 6.64588 10.1933 6.6827 10.34L5.57812 11.165L6.6827 13.035L7.95297 12.485C8.04502 12.5767 8.15087 12.6592 8.27054 12.7325C8.3902 12.8058 8.52367 12.87 8.67095 12.925L8.83663 14.3ZM9.94121 11.55C9.48097 11.55 9.08977 11.3896 8.7676 11.0688C8.44543 10.7479 8.28434 10.3583 8.28434 9.9C8.28434 9.44167 8.44543 9.05208 8.7676 8.73125C9.08977 8.41042 9.48097 8.25 9.94121 8.25C10.4015 8.25 10.7927 8.41042 11.1148 8.73125C11.437 9.05208 11.5981 9.44167 11.5981 9.9C11.5981 10.3583 11.437 10.7479 11.1148 11.0688C10.7927 11.3896 10.4015 11.55 9.94121 11.55Z" fill="#0DF2CC"/>
</svg>
