<svg width="28" height="28" viewBox="0 0 28 28" fill="none" xmlns="http://www.w3.org/2000/svg">
<path d="M20.5539 18.091H19.2455L18.7837 17.6293C20.7078 15.3204 21.7853 12.1649 21.1696 8.85551C20.3999 4.31471 16.6288 0.620499 12.011 0.0817593C5.08434 -0.764831 -0.764831 5.08434 0.0817593 12.011C0.620499 16.6288 4.31471 20.3999 8.85551 21.1696C12.1649 21.7853 15.3204 20.7078 17.6293 18.7837L18.091 19.2455V20.5539L25.0177 27.4805C25.7104 28.1732 26.7878 28.1732 27.4805 27.4805C28.1732 26.8648 28.1732 25.7104 27.4805 25.0947L20.5539 18.091ZM10.7026 18.091C6.62359 18.091 3.3142 14.7816 3.3142 10.7026C3.3142 6.62359 6.62359 3.3142 10.7026 3.3142C14.7816 3.3142 18.091 6.62359 18.091 10.7026C18.091 14.7816 14.7816 18.091 10.7026 18.091Z" fill="#00FFC3"/>
</svg>
