<svg width="18" height="17" viewBox="0 0 18 17" fill="none" xmlns="http://www.w3.org/2000/svg">
<path d="M1.8 17C1.305 17 0.88125 16.8248 0.52875 16.4743C0.17625 16.1239 0 15.7026 0 15.2105V5.36842C0 4.87632 0.17625 4.45504 0.52875 4.10461C0.88125 3.75417 1.305 3.57895 1.8 3.57895H5.4V1.78947C5.4 1.29737 5.57625 0.876097 5.92875 0.525658C6.28125 0.175219 6.705 0 7.2 0H10.8C11.295 0 11.7188 0.175219 12.0713 0.525658C12.4238 0.876097 12.6 1.29737 12.6 1.78947V3.57895H16.2C16.695 3.57895 17.1188 3.75417 17.4713 4.10461C17.8238 4.45504 18 4.87632 18 5.36842V15.2105C18 15.7026 17.8238 16.1239 17.4713 16.4743C17.1188 16.8248 16.695 17 16.2 17H1.8ZM7.2 3.57895H10.8V1.78947H7.2V3.57895ZM16.2 11.6316H11.7V13.4211H6.3V11.6316H1.8V15.2105H16.2V11.6316ZM8.1 11.6316H9.9V9.84211H8.1V11.6316ZM1.8 9.84211H6.3V8.05263H11.7V9.84211H16.2V5.36842H1.8V9.84211Z" fill="#00FFC3"/>
</svg>
