<svg width="27" height="30" viewBox="0 0 27 30" fill="none" xmlns="http://www.w3.org/2000/svg">
<path d="M1.35 7.45499V1.491L6.75 4.47299L1.35 7.45499ZM21.6 7.45499V1.491L27 4.47299L21.6 7.45499ZM12.15 5.96399V0L17.55 2.982L12.15 5.96399ZM12.15 29.82C10.44 29.7703 8.84813 29.615 7.37438 29.354C5.90063 29.0931 4.61812 28.7638 3.52688 28.3662C2.43563 27.9686 1.575 27.5089 0.945 26.9871C0.315 26.4652 0 25.9185 0 25.347V11.928C0 11.3067 0.354375 10.729 1.06313 10.1947C1.77188 9.66043 2.73375 9.18828 3.94875 8.77825C5.16375 8.36823 6.5925 8.04518 8.235 7.8091C9.8775 7.57303 11.6325 7.45499 13.5 7.45499C15.3675 7.45499 17.1225 7.57303 18.765 7.8091C20.4075 8.04518 21.8363 8.36823 23.0513 8.77825C24.2663 9.18828 25.2281 9.66043 25.9369 10.1947C26.6456 10.729 27 11.3067 27 11.928V25.347C27 25.9185 26.685 26.4652 26.055 26.9871C25.425 27.5089 24.5644 27.9686 23.4731 28.3662C22.3819 28.7638 21.0994 29.0931 19.6256 29.354C18.1519 29.615 16.56 29.7703 14.85 29.82V23.856H12.15V29.82ZM13.5 13.419C15.6825 13.419 17.5669 13.2761 19.1531 12.9903C20.7394 12.7045 22.005 12.3753 22.95 12.0025C22.95 11.8783 22.095 11.5863 20.385 11.1266C18.675 10.6669 16.38 10.437 13.5 10.437C10.62 10.437 8.325 10.6669 6.615 11.1266C4.905 11.5863 4.05 11.8783 4.05 12.0025C4.995 12.3753 6.26063 12.7045 7.84688 12.9903C9.43313 13.2761 11.3175 13.419 13.5 13.419ZM9.45 26.6143V20.874H17.55V26.6143C19.35 26.4155 20.8238 26.1235 21.9713 25.7384C23.1188 25.3532 23.895 25.0115 24.3 24.7133V14.6118C23.0625 15.1585 21.51 15.5934 19.6425 15.9164C17.775 16.2395 15.7275 16.401 13.5 16.401C11.2725 16.401 9.225 16.2395 7.3575 15.9164C5.49 15.5934 3.9375 15.1585 2.7 14.6118V24.7133C3.105 25.0115 3.88125 25.3532 5.02875 25.7384C6.17625 26.1235 7.65 26.4155 9.45 26.6143Z" fill="#00FFC3"/>
</svg>
