<svg width="19" height="24" viewBox="0 0 19 24" fill="none" xmlns="http://www.w3.org/2000/svg">
<g clip-path="url(#clip0_2648_10)">
<path d="M4.75 19.2H14.25V16.8H4.75V19.2ZM4.75 14.4H14.25V12H4.75V14.4ZM2.375 24C1.72187 24 1.16276 23.765 0.697656 23.295C0.232552 22.825 0 22.26 0 21.6V2.4C0 1.74 0.232552 1.175 0.697656 0.705C1.16276 0.235 1.72187 0 2.375 0H11.875L19 7.2V21.6C19 22.26 18.7674 22.825 18.3023 23.295C17.8372 23.765 17.2781 24 16.625 24H2.375ZM10.6875 8.4V2.4H2.375V21.6H16.625V8.4H10.6875ZM2.375 2.4V8.4V21.6V2.4Z" fill="#3F3F3F"/>
</g>
<defs>
<clipPath id="clip0_2648_10">
<rect width="19" height="24" fill="white"/>
</clipPath>
</defs>
</svg>
