<svg width="22" height="22" viewBox="0 0 22 22" fill="none" xmlns="http://www.w3.org/2000/svg">
<path d="M6.71 21.1337C5.37167 20.5562 4.2075 19.7725 3.2175 18.7825C2.2275 17.7925 1.44375 16.6283 0.86625 15.29C0.28875 13.9517 0 12.5217 0 11C0 9.47833 0.28875 8.04833 0.86625 6.71C1.44375 5.37167 2.2275 4.2075 3.2175 3.2175C4.2075 2.2275 5.37167 1.44375 6.71 0.86625C8.04833 0.28875 9.47833 0 11 0C12.5217 0 13.9517 0.28875 15.29 0.86625C16.6283 1.44375 17.7925 2.2275 18.7825 3.2175C19.7725 4.2075 20.5562 5.37167 21.1337 6.71C21.7113 8.04833 22 9.47833 22 11C22 12.5217 21.7113 13.9517 21.1337 15.29C20.5562 16.6283 19.7725 17.7925 18.7825 18.7825C17.7925 19.7725 16.6283 20.5562 15.29 21.1337C13.9517 21.7113 12.5217 22 11 22C9.47833 22 8.04833 21.7113 6.71 21.1337ZM17.2425 17.2425C18.9475 15.5375 19.8 13.4567 19.8 11C19.8 8.54333 18.9475 6.4625 17.2425 4.7575C15.5375 3.0525 13.4567 2.2 11 2.2C8.54333 2.2 6.4625 3.0525 4.7575 4.7575C3.0525 6.4625 2.2 8.54333 2.2 11C2.2 13.4567 3.0525 15.5375 4.7575 17.2425C6.4625 18.9475 8.54333 19.8 11 19.8C13.4567 19.8 15.5375 18.9475 17.2425 17.2425ZM6.325 15.675C5.04167 14.3917 4.4 12.8333 4.4 11C4.4 9.16667 5.04167 7.60833 6.325 6.325C7.60833 5.04167 9.16667 4.4 11 4.4C12.8333 4.4 14.3917 5.04167 15.675 6.325C16.9583 7.60833 17.6 9.16667 17.6 11C17.6 12.8333 16.9583 14.3917 15.675 15.675C14.3917 16.9583 12.8333 17.6 11 17.6C9.16667 17.6 7.60833 16.9583 6.325 15.675ZM14.1075 14.1075C14.9692 13.2458 15.4 12.21 15.4 11C15.4 9.79 14.9692 8.75417 14.1075 7.8925C13.2458 7.03083 12.21 6.6 11 6.6C9.79 6.6 8.75417 7.03083 7.8925 7.8925C7.03083 8.75417 6.6 9.79 6.6 11C6.6 12.21 7.03083 13.2458 7.8925 14.1075C8.75417 14.9692 9.79 15.4 11 15.4C12.21 15.4 13.2458 14.9692 14.1075 14.1075ZM9.44625 12.5538C9.01542 12.1229 8.8 11.605 8.8 11C8.8 10.395 9.01542 9.87708 9.44625 9.44625C9.87708 9.01542 10.395 8.8 11 8.8C11.605 8.8 12.1229 9.01542 12.5538 9.44625C12.9846 9.87708 13.2 10.395 13.2 11C13.2 11.605 12.9846 12.1229 12.5538 12.5538C12.1229 12.9846 11.605 13.2 11 13.2C10.395 13.2 9.87708 12.9846 9.44625 12.5538Z" fill="#00FFC3"/>
</svg>
