<svg width="17" height="11" viewBox="0 0 17 11" fill="none" xmlns="http://www.w3.org/2000/svg">
<path d="M16.9972 6.79511C16.86 4.83905 15.5689 4.52458 15.1448 4.42132C14.4548 4.25323 13.7929 4.02266 13.1642 3.73488C13.2573 3.50108 13.2065 3.19952 13.0348 3.05137C12.8682 2.90763 12.6476 2.97892 12.5308 3.19688L12.439 3.3679C12.2783 3.27872 12.1194 3.1872 11.9641 3.0898L11.6509 2.89355C11.755 2.65975 11.7082 2.34792 11.5359 2.19333C11.3689 2.04342 11.1443 2.11383 11.0257 2.33472L10.9586 2.45998L10.2191 1.99678C10.3118 1.76298 10.261 1.46171 10.0893 1.31386C9.9227 1.17012 9.70235 1.2417 9.58548 1.45936L9.52896 1.56438L8.76146 1.08358C8.81692 0.860929 8.75657 0.60278 8.59785 0.47312C8.43189 0.337592 8.21665 0.411517 8.1019 0.625662L8.08405 0.659104L7.09046 0.0366151C6.98805 -0.0276286 6.86799 -0.00621402 6.78066 0.0920583L5.20741 1.86067C4.74312 2.38254 4.15836 2.67002 3.56085 2.67002C2.76721 2.67002 2.02627 2.18188 1.5282 1.33058C1.41027 1.12905 1.23645 1.01347 1.05095 1.01347C0.719047 1.01347 0.447489 1.37517 0.432828 1.82693L0.0118913 6.60032C-0.0497298 7.29938 0.130671 7.99432 0.494236 8.45958C0.785343 8.83184 1.16421 9.03689 1.56135 9.03689H1.89112V9.96388C1.89112 10.2455 2.04836 10.491 2.25214 10.4995C2.46314 10.5083 2.6361 10.2748 2.6361 9.98558V9.03689H4.3156V9.96388C4.3156 10.2455 4.47284 10.491 4.67661 10.4995C4.88761 10.5083 5.06058 10.2748 5.06058 9.98558V9.03689H6.74007V9.96388C6.74007 10.2455 6.89731 10.491 7.10109 10.4995C7.31209 10.5083 7.48505 10.2748 7.48505 9.98558V9.03689H9.16434V9.96388C9.16434 10.2455 9.32158 10.491 9.52535 10.4995C9.73635 10.5083 9.90932 10.2748 9.90932 9.98558V9.03689H11.5888V9.96388C11.5888 10.2455 11.7461 10.491 11.9498 10.4995C12.1608 10.5083 12.3338 10.2748 12.3338 9.98558V9.03689H14.0133V9.96388C14.0133 10.2455 14.1705 10.491 14.3743 10.4995C14.5853 10.5083 14.7583 10.2748 14.7583 9.98558V9.03689H15.4121C16.2875 9.03689 17 8.05358 17 6.84468L16.9981 6.79481L16.9972 6.79511Z" fill="#00FFC3"/>
</svg>
