<svg width="24" height="24" viewBox="0 0 24 24" fill="none" xmlns="http://www.w3.org/2000/svg">
<path d="M4.235 17.61C5.17 16.895 6.215 16.3313 7.37 15.9188C8.525 15.5063 9.735 15.3 11 15.3C12.265 15.3 13.475 15.5063 14.63 15.9188C15.785 16.3313 16.83 16.895 17.765 17.61C18.4067 16.8583 18.9063 16.0058 19.2638 15.0525C19.6213 14.0992 19.8 13.0817 19.8 12C19.8 9.56167 18.9429 7.48542 17.2288 5.77125C15.5146 4.05708 13.4383 3.2 11 3.2C8.56167 3.2 6.48542 4.05708 4.77125 5.77125C3.05708 7.48542 2.2 9.56167 2.2 12C2.2 13.0817 2.37875 14.0992 2.73625 15.0525C3.09375 16.0058 3.59333 16.8583 4.235 17.61ZM11 13.1C9.91833 13.1 9.00625 12.7288 8.26375 11.9863C7.52125 11.2438 7.15 10.3317 7.15 9.25C7.15 8.16833 7.52125 7.25625 8.26375 6.51375C9.00625 5.77125 9.91833 5.4 11 5.4C12.0817 5.4 12.9938 5.77125 13.7363 6.51375C14.4788 7.25625 14.85 8.16833 14.85 9.25C14.85 10.3317 14.4788 11.2438 13.7363 11.9863C12.9938 12.7288 12.0817 13.1 11 13.1ZM11 23C9.47833 23 8.04833 22.7113 6.71 22.1338C5.37167 21.5563 4.2075 20.7725 3.2175 19.7825C2.2275 18.7925 1.44375 17.6283 0.86625 16.29C0.28875 14.9517 0 13.5217 0 12C0 10.4783 0.28875 9.04833 0.86625 7.71C1.44375 6.37167 2.2275 5.2075 3.2175 4.2175C4.2075 3.2275 5.37167 2.44375 6.71 1.86625C8.04833 1.28875 9.47833 1 11 1C12.5217 1 13.9517 1.28875 15.29 1.86625C16.6283 2.44375 17.7925 3.2275 18.7825 4.2175C19.7725 5.2075 20.5563 6.37167 21.1338 7.71C21.7113 9.04833 22 10.4783 22 12C22 13.5217 21.7113 14.9517 21.1338 16.29C20.5563 17.6283 19.7725 18.7925 18.7825 19.7825C17.7925 20.7725 16.6283 21.5563 15.29 22.1338C13.9517 22.7113 12.5217 23 11 23ZM11 20.8C11.9717 20.8 12.8883 20.6579 13.75 20.3738C14.6117 20.0896 15.4 19.6817 16.115 19.15C15.4 18.6183 14.6117 18.2104 13.75 17.9263C12.8883 17.6421 11.9717 17.5 11 17.5C10.0283 17.5 9.11167 17.6421 8.25 17.9263C7.38833 18.2104 6.6 18.6183 5.885 19.15C6.6 19.6817 7.38833 20.0896 8.25 20.3738C9.11167 20.6579 10.0283 20.8 11 20.8ZM11 10.9C11.4767 10.9 11.8708 10.7442 12.1825 10.4325C12.4942 10.1208 12.65 9.72667 12.65 9.25C12.65 8.77333 12.4942 8.37917 12.1825 8.0675C11.8708 7.75583 11.4767 7.6 11 7.6C10.5233 7.6 10.1292 7.75583 9.8175 8.0675C9.50583 8.37917 9.35 8.77333 9.35 9.25C9.35 9.72667 9.50583 10.1208 9.8175 10.4325C10.1292 10.7442 10.5233 10.9 11 10.9Z" fill="#0DF2CC"/>
</svg>
