<svg width="16" height="18" viewBox="0 0 16 18" fill="none" xmlns="http://www.w3.org/2000/svg">
<path d="M8 4C8.28344 4 8.52103 3.90417 8.71277 3.7125C8.90451 3.52083 9.00038 3.28333 9.00038 3C9.00038 2.71667 8.90451 2.47917 8.71277 2.2875C8.52103 2.09583 8.28344 2 8 2C7.71656 2 7.47897 2.09583 7.28723 2.2875C7.09549 2.47917 6.99962 2.71667 6.99962 3C6.99962 3.28333 7.09549 3.52083 7.28723 3.7125C7.47897 3.90417 7.71656 4 8 4ZM10.8261 4H12.5768C13.0769 4 13.5104 4.16667 13.8773 4.5C14.2441 4.83333 14.4691 5.24167 14.5525 5.725L15.9781 15.725C16.0614 16.325 15.9072 16.8542 15.5154 17.3125C15.1236 17.7708 14.6192 18 14.0023 18H1.9977C1.38079 18 0.876433 17.7708 0.484616 17.3125C0.0927988 16.8542 -0.0614271 16.325 0.0219382 15.725L1.44749 5.725C1.53085 5.24167 1.75594 4.83333 2.12274 4.5C2.48955 4.16667 2.92305 4 3.42324 4H5.17392C5.1239 3.83333 5.08221 3.67083 5.04887 3.5125C5.01552 3.35417 4.99885 3.18333 4.99885 3C4.99885 2.16667 5.29063 1.45833 5.87418 0.875C6.45774 0.291667 7.16635 0 8 0C8.83365 0 9.54226 0.291667 10.1258 0.875C10.7094 1.45833 11.0012 2.16667 11.0012 3C11.0012 3.18333 10.9845 3.35417 10.9511 3.5125C10.9178 3.67083 10.8761 3.83333 10.8261 4Z" fill="#00FFC3"/>
</svg>
