<svg width="22" height="26" viewBox="0 0 22 26" fill="none" xmlns="http://www.w3.org/2000/svg">
<path d="M2.41667 22.6667H19.3333V9.66875L13.5031 2.83333H2.41667V22.6667ZM2.41667 25.5C1.75208 25.5 1.18316 25.2226 0.709896 24.6677C0.236632 24.1128 0 23.4458 0 22.6667V2.83333C0 2.05417 0.236632 1.38715 0.709896 0.832292C1.18316 0.277431 1.75208 0 2.41667 0H14.5L21.75 8.5V22.6667C21.75 23.4458 21.5134 24.1128 21.0401 24.6677C20.5668 25.2226 19.9979 25.5 19.3333 25.5H2.41667ZM4.83333 19.8333H16.9167V17H4.83333V19.8333ZM4.83333 14.1667H16.9167V11.3333H4.83333V14.1667ZM4.83333 8.5H13.2917V5.66667H4.83333V8.5Z" fill="#00FFC4"/>
</svg>
