<svg width="36" height="36" viewBox="0 0 36 36" fill="none" xmlns="http://www.w3.org/2000/svg">
<path d="M27 21V16.5H22.5V13.5H27V9H30V13.5H34.5V16.5H30V21H27ZM9.2625 16.2375C8.0875 15.0625 7.5 13.65 7.5 12C7.5 10.35 8.0875 8.9375 9.2625 7.7625C10.4375 6.5875 11.85 6 13.5 6C15.15 6 16.5625 6.5875 17.7375 7.7625C18.9125 8.9375 19.5 10.35 19.5 12C19.5 13.65 18.9125 15.0625 17.7375 16.2375C16.5625 17.4125 15.15 18 13.5 18C11.85 18 10.4375 17.4125 9.2625 16.2375ZM1.5 30V25.8C1.5 24.95 1.71875 24.1688 2.15625 23.4563C2.59375 22.7438 3.175 22.2 3.9 21.825C5.45 21.05 7.025 20.4688 8.625 20.0813C10.225 19.6938 11.85 19.5 13.5 19.5C15.15 19.5 16.775 19.6938 18.375 20.0813C19.975 20.4688 21.55 21.05 23.1 21.825C23.825 22.2 24.4062 22.7438 24.8438 23.4563C25.2813 24.1688 25.5 24.95 25.5 25.8V30H1.5ZM4.5 27H22.5V25.8C22.5 25.525 22.4313 25.275 22.2938 25.05C22.1562 24.825 21.975 24.65 21.75 24.525C20.4 23.85 19.0375 23.3438 17.6625 23.0063C16.2875 22.6688 14.9 22.5 13.5 22.5C12.1 22.5 10.7125 22.6688 9.3375 23.0063C7.9625 23.3438 6.6 23.85 5.25 24.525C5.025 24.65 4.84375 24.825 4.70625 25.05C4.56875 25.275 4.5 25.525 4.5 25.8V27ZM15.6188 14.1188C16.2063 13.5313 16.5 12.825 16.5 12C16.5 11.175 16.2063 10.4688 15.6188 9.88125C15.0313 9.29375 14.325 9 13.5 9C12.675 9 11.9688 9.29375 11.3813 9.88125C10.7938 10.4688 10.5 11.175 10.5 12C10.5 12.825 10.7938 13.5313 11.3813 14.1188C11.9688 14.7063 12.675 15 13.5 15C14.325 15 15.0313 14.7063 15.6188 14.1188Z" fill="#00FFC3"/>
</svg>
