<svg width="75" height="76" viewBox="0 0 75 76" fill="none" xmlns="http://www.w3.org/2000/svg">
<path d="M27.7886 54.5865L53.7246 37.6458L27.7886 20.7052V54.5865ZM37.0514 75.2917C31.926 75.2917 27.1093 74.3035 22.6014 72.3271C18.0934 70.3507 14.1722 67.6684 10.8375 64.2803C7.50291 60.8921 4.863 56.908 2.9178 52.3277C0.9726 47.7475 0 42.8535 0 37.6458C0 32.4382 0.9726 27.5442 2.9178 22.964C4.863 18.3837 7.50291 14.3995 10.8375 11.0114C14.1722 7.62328 18.0934 4.94102 22.6014 2.96461C27.1093 0.988203 31.926 0 37.0514 0C42.1769 0 46.9936 0.988203 51.5015 2.96461C56.0094 4.94102 59.9307 7.62328 63.2653 11.0114C66.5999 14.3995 69.2398 18.3837 71.185 22.964C73.1302 27.5442 74.1028 32.4382 74.1028 37.6458C74.1028 42.8535 73.1302 47.7475 71.185 52.3277C69.2398 56.908 66.5999 60.8921 63.2653 64.2803C59.9307 67.6684 56.0094 70.3507 51.5015 72.3271C46.9936 74.3035 42.1769 75.2917 37.0514 75.2917ZM37.0514 67.7625C45.3262 67.7625 52.3351 64.8449 58.0781 59.0098C63.8211 53.1747 66.6926 46.0534 66.6926 37.6458C66.6926 29.2383 63.8211 22.1169 58.0781 16.2818C52.3351 10.4467 45.3262 7.52917 37.0514 7.52917C28.7766 7.52917 21.7677 10.4467 16.0247 16.2818C10.2818 22.1169 7.41028 29.2383 7.41028 37.6458C7.41028 46.0534 10.2818 53.1747 16.0247 59.0098C21.7677 64.8449 28.7766 67.7625 37.0514 67.7625Z" fill="#212222"/>
</svg>
