<svg width="17" height="17" viewBox="0 0 17 17" fill="none" xmlns="http://www.w3.org/2000/svg">
<path d="M6.66667 11.6667C8.05556 11.6667 9.23611 11.1806 10.2083 10.2083C11.1806 9.23611 11.6667 8.05556 11.6667 6.66667C11.6667 5.27778 11.1806 4.09722 10.2083 3.125C9.23611 2.15278 8.05556 1.66667 6.66667 1.66667C5.27778 1.66667 4.09722 2.15278 3.125 3.125C2.15278 4.09722 1.66667 5.27778 1.66667 6.66667C1.66667 8.05556 2.15278 9.23611 3.125 10.2083C4.09722 11.1806 5.27778 11.6667 6.66667 11.6667ZM6.66667 13.3333C4.80556 13.3333 3.22917 12.6875 1.9375 11.3958C0.645833 10.1042 0 8.52778 0 6.66667C0 4.80556 0.645833 3.22917 1.9375 1.9375C3.22917 0.645833 4.80556 0 6.66667 0C8.52778 0 10.1042 0.645833 11.3958 1.9375C12.6875 3.22917 13.3333 4.80556 13.3333 6.66667C13.3333 7.44444 13.2118 8.17708 12.9688 8.86458C12.7257 9.55208 12.3819 10.1806 11.9375 10.75L16.6667 15.5L15.5 16.6667L10.75 11.9375C10.1806 12.3819 9.55208 12.7257 8.86458 12.9688C8.17708 13.2118 7.44444 13.3333 6.66667 13.3333Z" fill="#BCB6B6"/>
</svg>
