<svg width="19" height="19" viewBox="0 0 19 19" fill="none" xmlns="http://www.w3.org/2000/svg">
<path d="M8.39232 13.1416L13.9736 7.56033L12.8652 6.452L8.39232 10.9249L6.13607 8.66867L5.02773 9.777L8.39232 13.1416ZM9.50065 17.4166C8.40551 17.4166 7.37634 17.2088 6.41315 16.7931C5.44996 16.3775 4.61211 15.8135 3.89961 15.101C3.18711 14.3885 2.62305 13.5506 2.20742 12.5874C1.7918 11.6242 1.58398 10.5951 1.58398 9.49992C1.58398 8.40478 1.7918 7.37561 2.20742 6.41242C2.62305 5.44922 3.18711 4.61138 3.89961 3.89888C4.61211 3.18638 5.44996 2.62231 6.41315 2.20669C7.37634 1.79106 8.40551 1.58325 9.50065 1.58325C10.5958 1.58325 11.625 1.79106 12.5882 2.20669C13.5513 2.62231 14.3892 3.18638 15.1017 3.89888C15.8142 4.61138 16.3783 5.44922 16.7939 6.41242C17.2095 7.37561 17.4173 8.40478 17.4173 9.49992C17.4173 10.5951 17.2095 11.6242 16.7939 12.5874C16.3783 13.5506 15.8142 14.3885 15.1017 15.101C14.3892 15.8135 13.5513 16.3775 12.5882 16.7931C11.625 17.2088 10.5958 17.4166 9.50065 17.4166ZM9.50065 15.8333C11.2687 15.8333 12.7663 15.2197 13.9934 13.9926C15.2204 12.7655 15.834 11.268 15.834 9.49992C15.834 7.73186 15.2204 6.23429 13.9934 5.00721C12.7663 3.78013 11.2687 3.16659 9.50065 3.16659C7.73259 3.16659 6.23503 3.78013 5.00794 5.00721C3.78086 6.23429 3.16732 7.73186 3.16732 9.49992C3.16732 11.268 3.78086 12.7655 5.00794 13.9926C6.23503 15.2197 7.73259 15.8333 9.50065 15.8333Z" fill="#00FFC4"/>
</svg>
