<svg width="19" height="19" viewBox="0 0 19 19" fill="none" xmlns="http://www.w3.org/2000/svg">
<path d="M15.9381 2.72125C14.2569 1.04 11.9344 0 9.36875 0C4.23813 0 0.078125 4.15938 0.078125 9.29063C0.078125 10.9981 0.53875 12.5975 1.34187 13.9725L1.31813 13.9288L0 18.7425L4.92438 17.4506C6.20625 18.1625 7.73562 18.5813 9.36312 18.5813H9.36688C14.4975 18.5794 18.6556 14.4194 18.6556 9.28875C18.6556 6.72438 17.6169 4.40313 15.9375 2.72188L15.9381 2.72125ZM9.36688 17.0119H9.36375C7.91437 17.0119 6.5575 16.6119 5.39937 15.9163L5.43438 15.9356L5.1525 15.7688L2.23062 16.5356L3.01 13.6863L2.82625 13.3944C2.08563 12.2306 1.64562 10.8125 1.64562 9.29125C1.64562 5.0275 5.1025 1.57063 9.36625 1.57063C13.63 1.57063 17.0869 5.0275 17.0869 9.29125C17.0869 13.555 13.6313 17.0119 9.36688 17.0119ZM13.6019 11.23C13.37 11.1138 12.2288 10.5531 12.0162 10.475C11.8031 10.3975 11.6481 10.3594 11.4931 10.5919C11.3394 10.8238 10.8944 11.3463 10.7587 11.5013C10.6237 11.6569 10.4875 11.6756 10.2556 11.56C9.53687 11.2688 8.91938 10.8806 8.3825 10.4025L8.38875 10.4081C7.88937 9.94563 7.46125 9.41625 7.11563 8.8325L7.09813 8.8C6.96313 8.56813 7.08375 8.4425 7.19938 8.32688C7.30375 8.22313 7.43188 8.05563 7.5475 7.92063C7.63875 7.80875 7.71688 7.68063 7.77625 7.54313L7.78 7.5325C7.80687 7.47813 7.8225 7.415 7.8225 7.3475C7.8225 7.26563 7.79938 7.18938 7.75938 7.12438L7.76062 7.12625C7.70187 7.01 7.23813 5.8675 7.045 5.4025C6.85625 4.95 6.66437 5.01188 6.5225 5.00438C6.3875 4.99813 6.2325 4.99688 6.0775 4.99688C5.83063 5.00313 5.61125 5.11438 5.46 5.28625L5.45938 5.2875C4.95813 5.76313 4.64688 6.43375 4.64688 7.17688C4.64688 7.19313 4.64687 7.21 4.6475 7.22625V7.22375C4.72937 8.14063 5.07313 8.96375 5.60188 9.63438L5.59438 9.625C6.59688 11.1119 7.93313 12.3013 9.50125 13.1025L9.56 13.1294C9.9025 13.2844 10.3413 13.45 10.79 13.5919L10.8831 13.6175C11.1594 13.705 11.4775 13.7556 11.8075 13.7556C11.9969 13.7556 12.1831 13.7388 12.3631 13.7069L12.3438 13.7094C13.0119 13.57 13.5662 13.1669 13.9044 12.6163L13.91 12.6056C14.0131 12.3769 14.0731 12.11 14.0731 11.8294C14.0731 11.7138 14.0631 11.6006 14.0437 11.4906L14.0456 11.5025C13.9881 11.4056 13.8331 11.3481 13.6006 11.2313L13.6019 11.23Z" fill="#BCB6B6"/>
</svg>
