<svg width="118" height="33" viewBox="0 0 118 33" fill="none" xmlns="http://www.w3.org/2000/svg">
<path d="M19.4041 27.8946C21.4135 27.8946 23.0425 26.2656 23.0425 24.2561C23.0425 22.2467 21.4135 20.6177 19.4041 20.6177C17.3946 20.6177 15.7656 22.2467 15.7656 24.2561C15.7656 26.2656 17.3946 27.8946 19.4041 27.8946Z" fill="#00FFC4"/>
<path d="M23.0435 6.06396V11.2382H14.2618V12.2897H18.6763C21.088 12.2897 23.0435 14.2661 23.0435 16.7036V18.9774H15.3022V15.9486H14.2618V27.8946H6.27097V11.2904C6.27097 11.2904 5.26215 11.3329 5.26215 11.2904C5.26215 11.2479 5.26215 22.4974 5.26215 22.4974H0V10.3531C0 7.9846 1.90029 6.06396 4.2437 6.06396H23.0435Z" fill="#00FFC4"/>
<path d="M13.8701 0H6.74851C6.37072 0 6.06445 0.263835 6.06445 0.589291V4.26197C6.06445 4.58742 6.37072 4.85126 6.74851 4.85126H13.8701C14.2479 4.85126 14.5542 4.58742 14.5542 4.26197V0.589291C14.5542 0.263835 14.2479 0 13.8701 0Z" fill="#00FFC4"/>
<path d="M42.1133 16.4961C42.0508 15.8659 41.7826 15.3763 41.3086 15.0273C40.8346 14.6784 40.1914 14.5039 39.3789 14.5039C38.8268 14.5039 38.3607 14.582 37.9805 14.7383C37.6003 14.8893 37.3086 15.1003 37.1055 15.3711C36.9076 15.6419 36.8086 15.9492 36.8086 16.293C36.7982 16.5794 36.8581 16.8294 36.9883 17.043C37.1237 17.2565 37.3086 17.4414 37.543 17.5977C37.7773 17.7487 38.0482 17.8815 38.3555 17.9961C38.6628 18.1055 38.9909 18.1992 39.3398 18.2773L40.7773 18.6211C41.4753 18.7773 42.1159 18.9857 42.6992 19.2461C43.2826 19.5065 43.7878 19.8268 44.2148 20.207C44.6419 20.5872 44.9727 21.0352 45.207 21.5508C45.4466 22.0664 45.569 22.6576 45.5742 23.3242C45.569 24.3034 45.319 25.1523 44.8242 25.8711C44.3346 26.5846 43.6263 27.1393 42.6992 27.5352C41.7773 27.9258 40.6654 28.1211 39.3633 28.1211C38.0716 28.1211 36.9466 27.9232 35.9883 27.5273C35.0352 27.1315 34.2904 26.5456 33.7539 25.7695C33.2227 24.9883 32.944 24.0221 32.918 22.8711H36.1914C36.2279 23.4076 36.3815 23.8555 36.6523 24.2148C36.9284 24.569 37.2956 24.8372 37.7539 25.0195C38.2174 25.1966 38.7409 25.2852 39.3242 25.2852C39.8971 25.2852 40.3945 25.2018 40.8164 25.0352C41.2435 24.8685 41.5742 24.6367 41.8086 24.3398C42.043 24.043 42.1602 23.7018 42.1602 23.3164C42.1602 22.957 42.0534 22.6549 41.8398 22.4102C41.6315 22.1654 41.3242 21.957 40.918 21.7852C40.5169 21.6133 40.0247 21.457 39.4414 21.3164L37.6992 20.8789C36.3503 20.5508 35.2852 20.0378 34.5039 19.3398C33.7227 18.6419 33.3346 17.7018 33.3398 16.5195C33.3346 15.5508 33.5924 14.7044 34.1133 13.9805C34.6393 13.2565 35.3607 12.6914 36.2773 12.2852C37.194 11.8789 38.2357 11.6758 39.4023 11.6758C40.5898 11.6758 41.6263 11.8789 42.5117 12.2852C43.4023 12.6914 44.0951 13.2565 44.5898 13.9805C45.0846 14.7044 45.3398 15.543 45.3555 16.4961H42.1133ZM53.209 28.1289C51.9798 28.1289 50.9225 27.8685 50.0371 27.3477C49.1569 26.8216 48.4798 26.0924 48.0059 25.1602C47.5371 24.2279 47.3027 23.1549 47.3027 21.9414C47.3027 20.7122 47.5397 19.6341 48.0137 18.707C48.4928 17.7747 49.1725 17.0482 50.0527 16.5273C50.9329 16.0013 51.9798 15.7383 53.1934 15.7383C54.2402 15.7383 55.1569 15.9284 55.9434 16.3086C56.7298 16.6888 57.3522 17.2227 57.8105 17.9102C58.2689 18.5977 58.5215 19.4049 58.5684 20.332H55.4277C55.3392 19.7331 55.1048 19.2513 54.7246 18.8867C54.3496 18.5169 53.8574 18.332 53.248 18.332C52.7324 18.332 52.2819 18.4727 51.8965 18.7539C51.5163 19.0299 51.2194 19.4336 51.0059 19.9648C50.7923 20.4961 50.6855 21.1393 50.6855 21.8945C50.6855 22.6602 50.7897 23.3112 50.998 23.8477C51.2116 24.3841 51.5111 24.793 51.8965 25.0742C52.2819 25.3555 52.7324 25.4961 53.248 25.4961C53.6283 25.4961 53.9694 25.418 54.2715 25.2617C54.5788 25.1055 54.8314 24.8789 55.0293 24.582C55.2324 24.2799 55.3652 23.918 55.4277 23.4961H58.5684C58.5163 24.4128 58.2663 25.2201 57.8184 25.918C57.3757 26.6107 56.7637 27.1523 55.9824 27.543C55.2012 27.9336 54.2767 28.1289 53.209 28.1289ZM66.1211 28.1289C64.9076 28.1289 63.8581 27.8711 62.9727 27.3555C62.0924 26.8346 61.4128 26.1107 60.9336 25.1836C60.4544 24.2513 60.2148 23.1706 60.2148 21.9414C60.2148 20.7018 60.4544 19.6185 60.9336 18.6914C61.4128 17.7591 62.0924 17.0352 62.9727 16.5195C63.8581 15.9987 64.9076 15.7383 66.1211 15.7383C67.3346 15.7383 68.3815 15.9987 69.2617 16.5195C70.1471 17.0352 70.8294 17.7591 71.3086 18.6914C71.7878 19.6185 72.0273 20.7018 72.0273 21.9414C72.0273 23.1706 71.7878 24.2513 71.3086 25.1836C70.8294 26.1107 70.1471 26.8346 69.2617 27.3555C68.3815 27.8711 67.3346 28.1289 66.1211 28.1289ZM66.1367 25.5508C66.6888 25.5508 67.1497 25.3945 67.5195 25.082C67.8893 24.7643 68.168 24.332 68.3555 23.7852C68.5482 23.2383 68.6445 22.6159 68.6445 21.918C68.6445 21.2201 68.5482 20.5977 68.3555 20.0508C68.168 19.5039 67.8893 19.0716 67.5195 18.7539C67.1497 18.4362 66.6888 18.2773 66.1367 18.2773C65.5794 18.2773 65.1107 18.4362 64.7305 18.7539C64.3555 19.0716 64.0716 19.5039 63.8789 20.0508C63.6914 20.5977 63.5977 21.2201 63.5977 21.918C63.5977 22.6159 63.6914 23.2383 63.8789 23.7852C64.0716 24.332 64.3555 24.7643 64.7305 25.082C65.1107 25.3945 65.5794 25.5508 66.1367 25.5508ZM81.8867 22.7852V15.8945H85.2148V27.8945H82.0195V25.7148H81.8945C81.6237 26.418 81.1732 26.9831 80.543 27.4102C79.918 27.8372 79.1549 28.0508 78.2539 28.0508C77.4518 28.0508 76.7461 27.8685 76.1367 27.5039C75.5273 27.1393 75.0508 26.6211 74.707 25.9492C74.3685 25.2773 74.1966 24.4727 74.1914 23.5352V15.8945H77.5195V22.9414C77.5247 23.6497 77.7148 24.2096 78.0898 24.6211C78.4648 25.0326 78.9674 25.2383 79.5977 25.2383C79.9987 25.2383 80.3737 25.1471 80.7227 24.9648C81.0716 24.7773 81.3529 24.5013 81.5664 24.1367C81.7852 23.7721 81.8919 23.3216 81.8867 22.7852ZM94.2598 15.8945V18.3945H87.0332V15.8945H94.2598ZM88.6738 13.0195H92.002V24.207C92.002 24.5143 92.0488 24.7539 92.1426 24.9258C92.2363 25.0924 92.3665 25.2096 92.5332 25.2773C92.7051 25.3451 92.903 25.3789 93.127 25.3789C93.2832 25.3789 93.4395 25.3659 93.5957 25.3398C93.752 25.3086 93.8717 25.2852 93.9551 25.2695L94.4785 27.7461C94.3118 27.7982 94.0775 27.8581 93.7754 27.9258C93.4733 27.9987 93.1061 28.043 92.6738 28.0586C91.8717 28.0898 91.1686 27.9831 90.5645 27.7383C89.9655 27.4935 89.4993 27.1133 89.166 26.5977C88.8327 26.082 88.6686 25.431 88.6738 24.6445V13.0195ZM102.881 15.8945V18.3945H95.4746V15.8945H102.881ZM97.1699 27.8945V15.0273C97.1699 14.1576 97.3392 13.4362 97.6777 12.8633C98.0215 12.2904 98.4902 11.8607 99.084 11.5742C99.6777 11.2878 100.352 11.1445 101.107 11.1445C101.618 11.1445 102.084 11.1836 102.506 11.2617C102.933 11.3398 103.251 11.4102 103.459 11.4727L102.865 13.9727C102.735 13.931 102.574 13.8919 102.381 13.8555C102.193 13.819 102.001 13.8008 101.803 13.8008C101.313 13.8008 100.972 13.9154 100.779 14.1445C100.587 14.3685 100.49 14.6836 100.49 15.0898V27.8945H97.1699ZM106.969 32.3945C106.547 32.3945 106.151 32.3607 105.781 32.293C105.417 32.2305 105.115 32.1497 104.875 32.0508L105.625 29.5664C106.016 29.6862 106.367 29.7513 106.68 29.7617C106.997 29.7721 107.271 29.6992 107.5 29.543C107.734 29.3867 107.924 29.1211 108.07 28.7461L108.266 28.2383L103.961 15.8945H107.461L109.945 24.707H110.07L112.578 15.8945H116.102L111.438 29.1914C111.214 29.8372 110.909 30.3997 110.523 30.8789C110.143 31.3633 109.661 31.7357 109.078 31.9961C108.495 32.2617 107.792 32.3945 106.969 32.3945Z" fill="white"/>
</svg>
